<svg width="199" height="45" viewBox="0 0 199 45" fill="none" xmlns="http://www.w3.org/2000/svg">
<path fill-rule="evenodd" clip-rule="evenodd" d="M22.5663 44.3554C34.3859 44.0199 43.8644 34.333 43.8644 22.4322C43.8644 10.3194 34.045 0.5 21.9322 0.5C9.81939 0.5 0 10.3194 0 22.4322C0 33.6262 8.3861 42.8614 19.2185 44.1982L19.4754 37.4803L14.8281 37.6505L15.6121 15.9598L20.2813 15.7888L20.3727 12.6987L17.2826 12.79L17.3845 9.71046L26.7011 9.36926L26.5772 12.4496L23.4855 12.5847L23.3503 15.6764L28.0196 15.5054L27.2136 37.1969L22.5663 37.3671L22.5663 44.3554ZM24.5661 24.914L24.4634 28.0155L24.3501 31.1064L24.236 34.2192L18.0323 34.4464L18.3816 24.9153L24 24.75L24.5734 24.7332L24.5661 24.914ZM24 21.75L18.4917 21.9121L18.6003 18.9481L24.804 18.7209L24.6937 21.7296L24 21.75Z" fill="#1390C5"/>
<path d="M62.776 27.1806L66.136 17.2686H69.736L64.816 30.5646H60.688L55.768 17.2686H59.392L62.776 27.1806ZM76.825 17.1006C77.945 17.1006 78.905 17.3646 79.705 17.8926C80.505 18.4206 81.073 19.1326 81.409 20.0286V17.2686H84.769V30.5646H81.409V27.7806C81.073 28.6766 80.505 29.3966 79.705 29.9406C78.905 30.4686 77.945 30.7326 76.825 30.7326C75.705 30.7326 74.697 30.4606 73.801 29.9166C72.905 29.3726 72.201 28.5886 71.689 27.5646C71.193 26.5246 70.945 25.3086 70.945 23.9166C70.945 22.5246 71.193 21.3166 71.689 20.2926C72.201 19.2526 72.905 18.4606 73.801 17.9166C74.697 17.3726 75.705 17.1006 76.825 17.1006ZM77.881 20.0526C76.825 20.0526 75.977 20.3966 75.337 21.0846C74.697 21.7726 74.377 22.7166 74.377 23.9166C74.377 25.1166 74.697 26.0606 75.337 26.7486C75.977 27.4206 76.825 27.7566 77.881 27.7566C78.905 27.7566 79.745 27.4126 80.401 26.7246C81.073 26.0206 81.409 25.0846 81.409 23.9166C81.409 22.7326 81.073 21.7966 80.401 21.1086C79.745 20.4046 78.905 20.0526 77.881 20.0526ZM93.8117 17.1006C95.5237 17.1006 96.9477 17.5646 98.0837 18.4926C99.2357 19.4206 99.9557 20.6846 100.244 22.2846H96.6677C96.5237 21.5806 96.1957 21.0286 95.6837 20.6286C95.1717 20.2126 94.5237 20.0046 93.7397 20.0046C92.8437 20.0046 92.0917 20.3406 91.4837 21.0126C90.8917 21.6686 90.5957 22.6366 90.5957 23.9166C90.5957 25.1966 90.8917 26.1726 91.4837 26.8446C92.0917 27.5006 92.8437 27.8286 93.7397 27.8286C94.5237 27.8286 95.1717 27.6286 95.6837 27.2286C96.1957 26.8126 96.5237 26.2526 96.6677 25.5486H100.244C99.9557 27.1486 99.2357 28.4126 98.0837 29.3406C96.9477 30.2686 95.5237 30.7326 93.8117 30.7326C92.5157 30.7326 91.3637 30.4606 90.3557 29.9166C89.3477 29.3566 88.5637 28.5646 88.0037 27.5406C87.4437 26.5166 87.1637 25.3086 87.1637 23.9166C87.1637 22.5246 87.4437 21.3166 88.0037 20.2926C88.5637 19.2526 89.3477 18.4606 90.3557 17.9166C91.3637 17.3726 92.5157 17.1006 93.8117 17.1006ZM108.624 17.1006C110.336 17.1006 111.76 17.5646 112.896 18.4926C114.048 19.4206 114.768 20.6846 115.056 22.2846H111.48C111.336 21.5806 111.008 21.0286 110.496 20.6286C109.984 20.2126 109.336 20.0046 108.552 20.0046C107.656 20.0046 106.904 20.3406 106.296 21.0126C105.704 21.6686 105.408 22.6366 105.408 23.9166C105.408 25.1966 105.704 26.1726 106.296 26.8446C106.904 27.5006 107.656 27.8286 108.552 27.8286C109.336 27.8286 109.984 27.6286 110.496 27.2286C111.008 26.8126 111.336 26.2526 111.48 25.5486H115.056C114.768 27.1486 114.048 28.4126 112.896 29.3406C111.76 30.2686 110.336 30.7326 108.624 30.7326C107.328 30.7326 106.176 30.4606 105.168 29.9166C104.16 29.3566 103.376 28.5646 102.816 27.5406C102.256 26.5166 101.976 25.3086 101.976 23.9166C101.976 22.5246 102.256 21.3166 102.816 20.2926C103.376 19.2526 104.16 18.4606 105.168 17.9166C106.176 17.3726 107.328 17.1006 108.624 17.1006ZM117.077 13.4526C117.077 12.9086 117.269 12.4686 117.653 12.1326C118.037 11.7806 118.541 11.6046 119.165 11.6046C119.789 11.6046 120.293 11.7806 120.677 12.1326C121.061 12.4686 121.253 12.9086 121.253 13.4526C121.253 13.9806 121.061 14.4206 120.677 14.7726C120.293 15.1086 119.789 15.2766 119.165 15.2766C118.541 15.2766 118.037 15.1086 117.653 14.7726C117.269 14.4206 117.077 13.9806 117.077 13.4526ZM120.845 17.2686V30.5646H117.461V17.2686H120.845ZM131.826 17.0766C133.362 17.0766 134.586 17.5806 135.498 18.5886C136.41 19.5966 136.866 21.0126 136.866 22.8366V30.5646H133.506V23.2206C133.506 22.1646 133.234 21.3486 132.69 20.7726C132.146 20.1806 131.402 19.8846 130.458 19.8846C129.498 19.8846 128.73 20.1966 128.154 20.8206C127.578 21.4446 127.29 22.3406 127.29 23.5086V30.5646H123.906V17.2686H127.29V19.9326C127.642 19.0366 128.218 18.3406 129.018 17.8446C129.834 17.3326 130.77 17.0766 131.826 17.0766ZM152.348 23.4126C152.348 23.7486 152.308 24.1326 152.228 24.5646H142.484C142.532 25.7486 142.852 26.6206 143.444 27.1806C144.036 27.7406 144.772 28.0206 145.652 28.0206C146.436 28.0206 147.084 27.8286 147.596 27.4446C148.124 27.0606 148.46 26.5406 148.604 25.8846H152.18C152.004 26.8126 151.628 27.6446 151.052 28.3806C150.476 29.1166 149.732 29.6926 148.82 30.1086C147.924 30.5246 146.924 30.7326 145.82 30.7326C144.524 30.7326 143.372 30.4606 142.364 29.9166C141.356 29.3566 140.572 28.5646 140.012 27.5406C139.452 26.5166 139.172 25.3086 139.172 23.9166C139.172 22.5246 139.452 21.3166 140.012 20.2926C140.572 19.2526 141.356 18.4606 142.364 17.9166C143.372 17.3726 144.524 17.1006 145.82 17.1006C147.132 17.1006 148.276 17.3726 149.252 17.9166C150.244 18.4606 151.004 19.2126 151.532 20.1726C152.076 21.1166 152.348 22.1966 152.348 23.4126ZM148.94 23.0766C148.988 21.9886 148.7 21.1646 148.076 20.6046C147.468 20.0446 146.716 19.7646 145.82 19.7646C144.908 19.7646 144.14 20.0446 143.516 20.6046C142.892 21.1646 142.548 21.9886 142.484 23.0766H148.94Z" fill="#333333"/>
<path d="M154.366 13.4526C154.366 12.9086 154.558 12.4686 154.942 12.1326C155.326 11.7806 155.83 11.6046 156.454 11.6046C157.078 11.6046 157.582 11.7806 157.966 12.1326C158.35 12.4686 158.542 12.9086 158.542 13.4526C158.542 13.9806 158.35 14.4206 157.966 14.7726C157.582 15.1086 157.078 15.2766 156.454 15.2766C155.83 15.2766 155.326 15.1086 154.942 14.7726C154.558 14.4206 154.366 13.9806 154.366 13.4526ZM158.134 17.2686V30.5646H154.75V17.2686H158.134ZM169.115 17.0766C170.651 17.0766 171.875 17.5806 172.787 18.5886C173.699 19.5966 174.155 21.0126 174.155 22.8366V30.5646H170.795V23.2206C170.795 22.1646 170.523 21.3486 169.979 20.7726C169.435 20.1806 168.691 19.8846 167.747 19.8846C166.787 19.8846 166.019 20.1966 165.443 20.8206C164.867 21.4446 164.579 22.3406 164.579 23.5086V30.5646H161.195V17.2686H164.579V19.9326C164.931 19.0366 165.507 18.3406 166.307 17.8446C167.123 17.3326 168.059 17.0766 169.115 17.0766ZM183.709 14.9646C182.717 14.9006 182.021 15.0446 181.621 15.3966C181.221 15.7486 181.021 16.3646 181.021 17.2446V17.2686H183.709V20.1246H181.021V30.5646H177.637V20.1246H175.933V17.2686H177.637V16.9566C177.637 15.3726 178.085 14.1566 178.981 13.3086C179.893 12.4446 181.237 12.0126 183.013 12.0126C183.317 12.0126 183.549 12.0206 183.709 12.0366V14.9646ZM191.878 17.1006C193.174 17.1006 194.334 17.3726 195.358 17.9166C196.398 18.4606 197.214 19.2526 197.806 20.2926C198.398 21.3166 198.694 22.5246 198.694 23.9166C198.694 25.3086 198.398 26.5166 197.806 27.5406C197.214 28.5646 196.398 29.3566 195.358 29.9166C194.334 30.4606 193.174 30.7326 191.878 30.7326C190.582 30.7326 189.414 30.4606 188.374 29.9166C187.35 29.3566 186.542 28.5646 185.95 27.5406C185.358 26.5166 185.062 25.3086 185.062 23.9166C185.062 22.5246 185.358 21.3166 185.95 20.2926C186.542 19.2526 187.35 18.4606 188.374 17.9166C189.414 17.3726 190.582 17.1006 191.878 17.1006ZM191.878 20.0286C190.934 20.0286 190.134 20.3646 189.478 21.0366C188.822 21.6926 188.494 22.6526 188.494 23.9166C188.494 25.1806 188.822 26.1486 189.478 26.8206C190.134 27.4766 190.934 27.8046 191.878 27.8046C192.822 27.8046 193.622 27.4766 194.278 26.8206C194.934 26.1486 195.262 25.1806 195.262 23.9166C195.262 22.6526 194.934 21.6926 194.278 21.0366C193.622 20.3646 192.822 20.0286 191.878 20.0286Z" fill="#1390C5"/>
</svg>